<?xml version="1.0" encoding="utf-8"?>
<!-- Generator: Adobe Illustrator 18.1.1, SVG Export Plug-In . SVG Version: 6.00 Build 0)  -->
<svg version="1.1" id="Capa_1" xmlns="http://www.w3.org/2000/svg" xmlns:xlink="http://www.w3.org/1999/xlink" x="0px" y="0px"
	 viewBox="0 0 612 792" enable-background="new 0 0 612 792" xml:space="preserve">
<path fill="#F0F0FA" d="M467.8,792c0,0,71.9,0,71.9-72V72c0-72-71.9-72-71.9-72H144.2c0,0-71.9,0-71.9,72v648c0,72,71.9,72,71.9,72
	H467.8z M306,762c-19.8,0-35.9-16.1-35.9-35.9c0-19.8,16.1-35.9,35.9-35.9s35.9,16.1,35.9,35.9C341.9,745.9,325.8,762,306,762z
	 M216.1,43.9c0-4.5,3.6-7.9,7.9-7.9h163.8c4.4,0,8,3.6,8,7.9V46c0,4.5-3.6,7.9-7.9,7.9H224.1c-4.3,0-7.9-3.6-7.9-7.9V43.9z
	 M108.3,89.9h395.4V665H108.3V89.9z"/>
</svg>
