<?xml version="1.0" encoding="utf-8"?>
<!-- Generator: Adobe Illustrator 18.1.1, SVG Export Plug-In . SVG Version: 6.00 Build 0)  -->
<svg version="1.1" id="Capa_1" xmlns="http://www.w3.org/2000/svg" xmlns:xlink="http://www.w3.org/1999/xlink" x="0px" y="0px"
	 viewBox="-197 324 216 146" enable-background="new -197 324 216 146" xml:space="preserve">
<path fill="#FFFFFF" d="M-50.5,447.5h-76.9c-6.6,0-12-5.4-12-12v-76.9c0-6.6,5.4-12,12-12h76.9c6.6,0,12,5.4,12,12v76.9
	C-38.5,442.1-43.9,447.5-50.5,447.5z"/>
<g>
	<path d="M-122.9,460.4c-8.1,0-15.1-2.9-20.8-8.6c-5.7-5.7-8.6-12.7-8.6-20.8v-67.8c0-8.1,2.9-15.1,8.6-20.8
		c5.7-5.7,12.7-8.6,20.8-8.6h67.8c8.1,0,15.1,2.9,20.8,8.6c5.7,5.7,8.6,12.7,8.6,20.8v67.8c0,8.1-2.9,15.1-8.6,20.8
		c-5.7,5.7-12.7,8.6-20.8,8.6H-122.9z M-122.9,356.1c-2,0-3.5,0.6-5,2.1c-1.4,1.4-2.1,3-2.1,5v67.8c0,2,0.6,3.5,2.1,5
		c1.4,1.4,3,2.1,5,2.1h67.8c2,0,3.5-0.6,5-2.1c1.4-1.4,2.1-3,2.1-5v-67.8c0-2-0.6-3.5-2.1-5c-1.4-1.4-3-2.1-5-2.1H-122.9z"/>
	<path fill="#FFFFFF" d="M-55.1,339.6c6.5,0,12,2.3,16.6,6.9c4.6,4.6,6.9,10.1,6.9,16.6v67.8c0,6.5-2.3,12-6.9,16.6
		c-4.6,4.6-10.1,6.9-16.6,6.9h-67.8c-6.5,0-12-2.3-16.6-6.9c-4.6-4.6-6.9-10.1-6.9-16.6v-67.8c0-6.5,2.3-12,6.9-16.6
		c4.6-4.6,10.1-6.9,16.6-6.9H-55.1 M-122.9,443.9h67.8c3.6,0,6.7-1.3,9.2-3.8c2.6-2.6,3.8-5.6,3.8-9.2v-67.8c0-3.6-1.3-6.7-3.8-9.2
		c-2.6-2.6-5.6-3.8-9.2-3.8h-67.8c-3.6,0-6.7,1.3-9.2,3.8c-2.6,2.6-3.8,5.6-3.8,9.2v67.8c0,3.6,1.3,6.7,3.8,9.2
		C-129.5,442.7-126.5,443.9-122.9,443.9 M-55.1,327.6h-67.8c-9.6,0-18.3,3.6-25.1,10.4c-6.8,6.8-10.4,15.5-10.4,25.1v67.8
		c0,9.6,3.6,18.3,10.4,25.1c6.8,6.8,15.5,10.4,25.1,10.4h67.8c9.6,0,18.3-3.6,25.1-10.4c6.8-6.8,10.4-15.5,10.4-25.1v-67.8
		c0-9.6-3.6-18.3-10.4-25.1C-36.8,331.2-45.5,327.6-55.1,327.6L-55.1,327.6z M-122.9,431.9c-0.4,0-0.4,0-0.7-0.3
		c-0.3-0.3-0.3-0.3-0.3-0.7v-67.8c0-0.4,0-0.4,0.3-0.7c0.3-0.3,0.3-0.3,0.7-0.3h67.8c0.4,0,0.4,0,0.7,0.3c0.3,0.3,0.3,0.3,0.3,0.7
		v67.8c0,0.4,0,0.4-0.3,0.7c-0.3,0.3-0.3,0.3-0.7,0.3H-122.9L-122.9,431.9z"/>
</g>
</svg>
