<?xml version="1.0" encoding="utf-8"?>
<!-- Generator: Adobe Illustrator 18.1.1, SVG Export Plug-In . SVG Version: 6.00 Build 0)  -->
<svg version="1.1" xmlns="http://www.w3.org/2000/svg" xmlns:xlink="http://www.w3.org/1999/xlink" x="0px" y="0px"
	 viewBox="-197 324 216 146" enable-background="new -197 324 216 146" xml:space="preserve">
<g id="Слой_2">
	<path fill="#FFFFFF" d="M-64.3,449h-70c-9.7,0-17.6-7.9-17.6-17.6v-68.8c0-9.7,7.9-17.6,17.6-17.6h70c9.7,0,17.6,7.9,17.6,17.6
		v68.8C-46.7,441.1-54.6,449-64.3,449z"/>
</g>
<g id="Capa_1">
	<g>
		<g>
			<path d="M-133.3,460.4c-8.1,0-15.1-2.9-20.8-8.6c-5.7-5.7-8.6-12.7-8.6-20.8v-67.8c0-8.1,2.9-15.1,8.6-20.8
				c5.7-5.7,12.7-8.6,20.8-8.6h67.8c4.3,0,8.3,0.9,12.1,2.6c2.6,1.2,4.3,3.5,4.8,6.2c0.5,2.9-0.4,5.7-2.4,7.7l-4,4
				c-1.7,1.7-3.8,2.6-6.1,2.6c-0.8,0-1.5-0.1-2.4-0.4c-0.7-0.2-1.4-0.3-2-0.3h-67.8c-2,0-3.5,0.6-5,2.1s-2.1,3-2.1,5v67.8
				c0,2,0.6,3.5,2.1,5c1.4,1.4,3,2.1,5,2.1h67.8c2,0,3.5-0.6,5-2.1c1.4-1.4,2.1-3,2.1-5v-20.7c0-2.3,0.9-4.4,2.5-6l5.2-5.2
				c1.7-1.7,3.8-2.6,6.1-2.6c1.2,0,2.3,0.3,3.4,0.8c3.2,1.4,5.2,4.3,5.2,7.8v25.9c0,8.1-2.9,15.1-8.6,20.8
				c-5.7,5.7-12.7,8.6-20.8,8.6H-133.3z"/>
			<path fill="#FFFFFF" d="M-65.5,339.6c3.4,0,6.6,0.7,9.5,2c0.8,0.4,1.3,1,1.5,1.9c0.2,0.9-0.1,1.7-0.7,2.4l-4,4
				c-0.5,0.5-1.2,0.8-1.9,0.8c-0.2,0-0.4-0.1-0.7-0.2c-1.2-0.3-2.5-0.5-3.7-0.5h-67.8c-3.6,0-6.7,1.3-9.2,3.8
				c-2.6,2.6-3.8,5.6-3.8,9.2v67.8c0,3.6,1.3,6.7,3.8,9.2c2.6,2.6,5.6,3.8,9.2,3.8h67.8c3.6,0,6.7-1.3,9.2-3.8
				c2.6-2.6,3.8-5.6,3.8-9.2v-20.7c0-0.7,0.2-1.3,0.7-1.8l5.2-5.2c0.5-0.5,1.2-0.8,1.9-0.8c0.3,0,0.7,0.1,1,0.2
				c1.1,0.4,1.6,1.2,1.6,2.4v25.9c0,6.5-2.3,12-6.9,16.6c-4.6,4.6-10.1,6.9-16.6,6.9h-67.8c-6.5,0-12-2.3-16.6-6.9
				c-4.6-4.6-6.9-10.1-6.9-16.6v-67.8c0-6.5,2.3-12,6.9-16.6c4.6-4.6,10.1-6.9,16.6-6.9H-65.5 M-65.5,327.6h-67.8
				c-9.6,0-18.3,3.6-25.1,10.4c-6.8,6.8-10.4,15.5-10.4,25.1v67.8c0,9.6,3.6,18.3,10.4,25.1c6.8,6.8,15.5,10.4,25.1,10.4h67.8
				c9.6,0,18.3-3.6,25.1-10.4c6.8-6.8,10.4-15.5,10.4-25.1V405c0-5.9-3.3-11-8.7-13.3c-1.9-0.9-3.8-1.3-5.9-1.3
				c-3.9,0-7.6,1.5-10.4,4.3l-5.2,5.2c-2.7,2.7-4.2,6.4-4.2,10.3v20.7c0,0.4,0,0.4-0.3,0.7c-0.3,0.3-0.3,0.3-0.7,0.3h-67.8
				c-0.4,0-0.4,0-0.7-0.3s-0.3-0.3-0.3-0.7v-67.8c0-0.4,0-0.4,0.3-0.7s0.3-0.3,0.7-0.3h67.8c0.1,0,0.2,0,0.5,0.1
				c1.4,0.4,2.6,0.6,3.9,0.6c3.9,0,7.6-1.5,10.4-4.3l4-4c3.4-3.4,4.9-8.2,4.1-12.9l0-0.1l0-0.1c-0.9-4.7-3.9-8.5-8.2-10.5
				C-55.4,328.7-60.3,327.6-65.5,327.6L-65.5,327.6z"/>
		</g>
		<g>
			<path d="M-94.2,439.4c-3.4,0-6.5-1.3-8.9-3.7l-35-35c-2.4-2.4-3.7-5.5-3.7-8.9c0-3.4,1.3-6.5,3.7-8.9l9-9
				c2.4-2.4,5.5-3.7,8.9-3.7c3.4,0,6.5,1.3,8.9,3.7l17.2,17.2l48.5-48.5c2.4-2.4,5.5-3.7,8.9-3.7c3.4,0,6.5,1.3,8.9,3.7l9,9
				c2.4,2.4,3.7,5.5,3.7,8.9c0,3.4-1.3,6.5-3.7,8.9l-66.3,66.3C-87.7,438.1-90.8,439.4-94.2,439.4z"/>
			<path fill="#FFFFFF" d="M-36.8,344.9c1.8,0,3.3,0.7,4.6,2l9,9c1.3,1.3,2,2.9,2,4.6s-0.7,3.3-2,4.6l-66.3,66.3
				c-1.3,1.3-2.9,2-4.6,2s-3.3-0.7-4.6-2l-35-35c-1.3-1.3-2-2.9-2-4.6c0-1.8,0.7-3.3,2-4.6l9-9c1.3-1.3,2.9-2,4.6-2s3.3,0.7,4.6,2
				l21.4,21.4l52.7-52.7C-40.2,345.6-38.6,344.9-36.8,344.9 M-36.8,332.9c-4.9,0-9.6,1.9-13.1,5.5l-44.2,44.2l-12.9-12.9
				c-3.6-3.6-8.1-5.5-13.1-5.5s-9.6,1.9-13.1,5.5l-9,9c-3.6,3.6-5.5,8.1-5.5,13.1c0,5,1.9,9.6,5.5,13.1l35,35
				c3.6,3.6,8.1,5.5,13.1,5.5s9.6-1.9,13.1-5.5l66.3-66.3c3.6-3.6,5.5-8.1,5.5-13.1c0-5-1.9-9.6-5.5-13.1l-9-9
				C-27.3,334.8-31.8,332.9-36.8,332.9L-36.8,332.9z"/>
		</g>
	</g>
</g>
</svg>
