<?xml version="1.0" encoding="utf-8"?>
<!-- Generator: Adobe Illustrator 18.1.1, SVG Export Plug-In . SVG Version: 6.00 Build 0)  -->
<svg version="1.1" id="Capa_1" xmlns="http://www.w3.org/2000/svg" xmlns:xlink="http://www.w3.org/1999/xlink" x="0px" y="0px"
	 viewBox="0 0 612 792" enable-background="new 0 0 612 792" xml:space="preserve">
<g id="_x31_0_5_">
	<g>
		<path fill="#EFF0F9" d="M267.8,587.2H141l130-130l-27-27L114.1,560l0.6-125.7c0-10.6-8.6-19.1-19.1-19.1s-19.1,8.6-19.1,19.1
			v172.1c0,5.7,2.3,10.2,6,13.4c3.5,3.5,8.3,5.8,13.6,5.8h171.6c10.6,0,19.1-8.6,19.1-19.1S278.3,587.2,267.8,587.2z M535.5,90h-459
			C34.3,90,0,124.3,0,166.5v459C0,667.7,34.3,702,76.5,702h459c42.2,0,76.5-34.3,76.5-76.5v-459C612,124.3,577.7,90,535.5,90z
			 M573.8,625.5c0,21.1-17.1,38.2-38.2,38.2h-459c-21.1,0-38.2-17.1-38.2-38.2v-459c0-21.1,17.1-38.2,38.2-38.2h459
			c21.1,0,38.2,17.1,38.2,38.2V625.5z M515.8,166.5H344.2c-10.6,0-19.1,8.6-19.1,19.1s8.6,19.1,19.1,19.1H471l-130,130l27,27
			L497.9,232l-0.6,125.7c0,10.6,8.6,19.1,19.1,19.1s19.1-8.6,19.1-19.1V185.6c0-5.7-2.3-10.2-6-13.4
			C526,168.7,521.2,166.5,515.8,166.5z"/>
	</g>
</g>
</svg>
