<?xml version="1.0" encoding="utf-8"?>
<!-- Generator: Adobe Illustrator 18.1.1, SVG Export Plug-In . SVG Version: 6.00 Build 0)  -->
<svg version="1.1" id="Capa_1" xmlns="http://www.w3.org/2000/svg" xmlns:xlink="http://www.w3.org/1999/xlink" x="0px" y="0px"
	 viewBox="-241 333 128 128" enable-background="new -241 333 128 128" xml:space="preserve">
<path fill="#F0F0FA" d="M-127,341h-100c-6.6,0-12,5.4-12,12s5.4,12,12,12h100c6.6,0,12-5.4,12-12S-120.4,341-127,341z"/>
<path fill="#F0F0FA" d="M-127,385h-100c-6.6,0-12,5.4-12,12s5.4,12,12,12h100c6.6,0,12-5.4,12-12S-120.4,385-127,385z"/>
<path fill="#F0F0FA" d="M-127,429h-100c-6.6,0-12,5.4-12,12s5.4,12,12,12h100c6.6,0,12-5.4,12-12S-120.4,429-127,429z"/>
</svg>
