<?xml version="1.0" encoding="utf-8"?>
<!-- Generator: Adobe Illustrator 18.1.1, SVG Export Plug-In . SVG Version: 6.00 Build 0)  -->
<svg version="1.1" id="Layer_3" xmlns="http://www.w3.org/2000/svg" xmlns:xlink="http://www.w3.org/1999/xlink" x="0px" y="0px"
	 viewBox="-255 347 100 100" enable-background="new -255 347 100 100" xml:space="preserve">
<g id="XMLID_1_">
	<g>
		<path fill="#F0F0FA" d="M-169,393.3c1,1,1.5,2.4,1.5,3.7s-0.5,2.7-1.5,3.7l-32.1,32.1c-2,2-5.4,2-7.4,0c-2-2-2-5.4,0-7.4
			l28.4-28.4l-28.4-28.4c-2-2-2-5.4,0-7.4c2-2,5.4-2,7.4,0L-169,393.3z"/>
		<path fill="#F0F0FA" d="M-201.5,393.3c1,1,1.5,2.4,1.5,3.7s-0.5,2.7-1.5,3.7l-32.1,32.1c-2.1,2-5.4,2-7.4,0c-2-2-2-5.4,0-7.4
			l28.4-28.4l-28.4-28.4c-2-2-2-5.4,0-7.4c2-2,5.4-2,7.4,0L-201.5,393.3z"/>
	</g>
	<g>
	</g>
</g>
<g id="XMLID_2_">
	<g>
		<path fill="#F0F0FA" d="M-168,393.3c1,1,1.5,2.4,1.5,3.7s-0.5,2.7-1.5,3.7l-32.1,32.1c-2,2-5.4,2-7.4,0c-2-2-2-5.4,0-7.4
			l28.4-28.4l-28.4-28.4c-2-2-2-5.4,0-7.4c2-2,5.4-2,7.4,0L-168,393.3z"/>
		<path fill="#F0F0FA" d="M-200.5,393.3c1,1,1.5,2.4,1.5,3.7s-0.5,2.7-1.5,3.7l-32.1,32.1c-2.1,2-5.4,2-7.4,0c-2-2-2-5.4,0-7.4
			l28.4-28.4l-28.4-28.4c-2-2-2-5.4,0-7.4c2-2,5.4-2,7.4,0L-200.5,393.3z"/>
	</g>
	<g>
	</g>
</g>
<g id="XMLID_3_">
	<g>
		<path fill="#F0F0FA" d="M-169,393.3c1,1,1.5,2.4,1.5,3.7s-0.5,2.7-1.5,3.7l-32.1,32.1c-2,2-5.4,2-7.4,0c-2-2-2-5.4,0-7.4
			l28.4-28.4l-28.4-28.4c-2-2-2-5.4,0-7.4c2-2,5.4-2,7.4,0L-169,393.3z"/>
		<path fill="#F0F0FA" d="M-201.5,393.3c1,1,1.5,2.4,1.5,3.7s-0.5,2.7-1.5,3.7l-32.1,32.1c-2.1,2-5.4,2-7.4,0c-2-2-2-5.4,0-7.4
			l28.4-28.4l-28.4-28.4c-2-2-2-5.4,0-7.4c2-2,5.4-2,7.4,0L-201.5,393.3z"/>
	</g>
	<g>
	</g>
</g>
</svg>
