<?xml version="1.0" encoding="utf-8"?>
<!-- Generator: Adobe Illustrator 18.1.1, SVG Export Plug-In . SVG Version: 6.00 Build 0)  -->
<svg version="1.1" id="Layer_3" xmlns="http://www.w3.org/2000/svg" xmlns:xlink="http://www.w3.org/1999/xlink" x="0px" y="0px"
	 viewBox="-255 347 100 100" enable-background="new -255 347 100 100" xml:space="preserve">
<path fill="#EF4836" d="M-201.5,425.4c2,2,2,5.4,0,7.4c-2,2-5.4,2-7.4,0l-32.1-32.1c-1-1-1.5-2.4-1.5-3.7s0.5-2.7,1.5-3.7l32.1-32.1
	c2-2,5.4-2,7.4,0c2,2,2,5.4,0,7.4l-28.4,28.4L-201.5,425.4z M-197.4,397l28.4-28.4c2-2,2-5.4,0-7.4c-2-2-5.4-2-7.4,0l-32.1,32.1
	c-1,1-1.5,2.4-1.5,3.7s0.5,2.7,1.5,3.7l32.1,32.1c2,2,5.4,2,7.4,0c2-2,2-5.4,0-7.4L-197.4,397z"/>
</svg>
