<?xml version="1.0" encoding="utf-8"?>
<!-- Generator: Adobe Illustrator 18.1.1, SVG Export Plug-In . SVG Version: 6.00 Build 0)  -->
<svg version="1.1" id="Layer_1" xmlns="http://www.w3.org/2000/svg" xmlns:xlink="http://www.w3.org/1999/xlink" x="0px" y="0px"
	 viewBox="-55 147 500 500" enable-background="new -55 147 500 500" xml:space="preserve">
<g>
	<polygon fill="#EF4836" points="-18.5,491.4 60.3,491.4 -49.8,601.5 -12.9,638.4 97.2,528.3 97.2,607 149.4,607 149.4,439.2 
		-18.5,439.2 	"/>
	<polygon fill="#EF4836" points="408.5,491.4 408.5,439.2 240.6,439.2 240.6,607 292.8,607 292.8,528.3 402.9,638.4 439.8,601.5 
		329.7,491.4 	"/>
	<polygon fill="#EF4836" points="408.5,302.6 329.7,302.6 439.8,192.5 402.9,155.6 292.8,265.7 292.8,187 240.6,187 240.6,354.8 
		408.5,354.8 	"/>
	<polygon fill="#EF4836" points="97.2,265.7 -12.9,155.6 -49.8,192.5 60.3,302.6 -18.5,302.6 -18.5,354.8 149.4,354.8 149.4,187 
		97.2,187 	"/>
</g>
</svg>
