<?xml version="1.0" encoding="utf-8"?>
<!-- Generator: Adobe Illustrator 18.1.1, SVG Export Plug-In . SVG Version: 6.00 Build 0)  -->
<svg version="1.1" id="Capa_1" xmlns="http://www.w3.org/2000/svg" xmlns:xlink="http://www.w3.org/1999/xlink" x="0px" y="0px"
	 viewBox="0 0 612 792" enable-background="new 0 0 612 792" xml:space="preserve">
<g id="_x31__4_">
	<g>
		<path fill="#EF4836" d="M267.2,415.1H95.6c-10.6,0-19.1,8.6-19.1,19.1s8.6,19.1,19.1,19.1h126.8l-130,130l27,27l129.8-129.8
			l-0.6,125.7c0,10.6,8.6,19.1,19.1,19.1s19.1-8.6,19.1-19.1V434.2c0-5.7-2.4-10.2-6-13.4C277.4,417.3,272.6,415.1,267.2,415.1z
			 M516.4,338.6H389.6l130-130l-27-27L362.8,311.4l0.6-125.7c0-10.6-8.6-19.1-19.1-19.1s-19.1,8.6-19.1,19.1v172.1
			c0,5.7,2.3,10.2,6,13.4c3.5,3.5,8.3,5.7,13.6,5.7h171.6c10.6,0,19.1-8.6,19.1-19.1S526.9,338.6,516.4,338.6z M535.5,90h-459
			C34.3,90,0,124.3,0,166.5v459C0,667.7,34.3,702,76.5,702h459c42.2,0,76.5-34.3,76.5-76.5v-459C612,124.3,577.7,90,535.5,90z
			 M573.8,625.5c0,21.1-17.1,38.2-38.2,38.2h-459c-21.1,0-38.2-17.1-38.2-38.2v-459c0-21.1,17.1-38.2,38.2-38.2h459
			c21.1,0,38.2,17.1,38.2,38.2V625.5z"/>
	</g>
</g>
</svg>
