<?xml version="1.0" encoding="utf-8"?>
<!-- Generator: Adobe Illustrator 18.1.1, SVG Export Plug-In . SVG Version: 6.00 Build 0)  -->
<svg version="1.1" id="Layer_1" xmlns="http://www.w3.org/2000/svg" xmlns:xlink="http://www.w3.org/1999/xlink" x="0px" y="0px"
	 viewBox="-55 147 500 500" enable-background="new -55 147 500 500" xml:space="preserve">
<g>
	<polygon fill="#EF4836" points="114.5,437.1 4.4,547.2 4.4,468.5 -47.8,468.5 -47.8,636.3 120,636.3 120,584.1 41.3,584.1 
		151.4,474 	"/>
	<polygon fill="#EF4836" points="385.6,547.2 275.5,437.1 238.6,474 348.7,584.1 270,584.1 270,636.3 437.8,636.3 437.8,468.5 
		385.6,468.5 	"/>
	<polygon fill="#EF4836" points="270,157.7 270,209.9 348.7,209.9 238.6,320 275.5,356.9 385.6,246.8 385.6,325.5 437.8,325.5 
		437.8,157.7 	"/>
	<polygon fill="#EF4836" points="120,209.9 120,157.7 -47.8,157.7 -47.8,325.5 4.4,325.5 4.4,246.8 114.5,356.9 151.4,320 
		41.3,209.9 	"/>
</g>
</svg>
